<svg width="214" height="31" viewBox="0 0 214 31" fill="none" xmlns="http://www.w3.org/2000/svg">
<path d="M212.577 22.4208C212.203 22.4208 211.867 22.2961 211.569 22.043C211.271 21.7899 211.12 21.4235 211.12 20.9361C211.12 20.4866 211.305 20.1126 211.678 19.8142C211.792 19.7197 211.931 19.6517 212.097 19.6026C212.267 19.5573 212.422 19.5346 212.573 19.5346C212.909 19.5346 213.2 19.6291 213.441 19.8142C213.645 19.9464 213.792 20.1164 213.875 20.3317C213.958 20.547 214 20.7661 214 20.989C214 21.2119 213.958 21.4272 213.875 21.635C213.792 21.839 213.645 22.009 213.441 22.1412C213.2 22.3263 212.909 22.4208 212.573 22.4208M210.629 21.3139C210.471 21.5292 210.233 21.6917 209.916 21.805C209.768 21.8806 209.591 21.9184 209.383 21.9184C208.972 21.9184 208.628 21.805 208.349 21.5821C208.179 21.5632 208.017 21.5595 207.858 21.567C207.7 21.5746 207.519 21.5821 207.311 21.5821C206.601 21.5821 205.854 21.6048 205.072 21.6539C204.287 21.6992 203.498 21.7597 202.706 21.8352C201.913 21.9108 201.124 21.9939 200.339 22.0884C199.554 22.1828 198.818 22.2735 198.127 22.3679H197.904C197.549 22.3679 197.251 22.2772 197.006 22.1035C196.764 21.9259 196.587 21.7144 196.473 21.4726V21.499C196.341 21.295 196.277 21.0608 196.277 20.7964C196.277 20.275 196.511 19.8633 196.975 19.5648C197.591 19.1153 198.217 18.6431 198.852 18.1482C199.486 17.6533 200.097 17.1546 200.686 16.6484C201.275 16.146 201.819 15.6587 202.324 15.1902C202.83 14.7218 203.268 14.3025 203.642 13.9285C204.016 13.5167 204.201 13.154 204.201 12.8367C204.201 12.5949 204.087 12.3872 203.865 12.2209C203.714 12.0887 203.513 11.9452 203.264 11.7865C203.011 11.6278 202.736 11.5221 202.438 11.4654H202.464C202.332 11.4465 202.136 11.4238 201.875 11.3974C201.615 11.3709 201.328 11.3483 201.022 11.3294C200.713 11.3105 200.407 11.2916 200.097 11.2727C199.788 11.2538 199.523 11.2425 199.301 11.2425C198.87 11.2236 198.55 11.0838 198.334 10.8232C198.119 10.5625 198.014 10.2716 198.014 9.9543V9.89764C198.014 9.63697 198.1 9.38009 198.282 9.12698C198.459 8.87387 198.742 8.74165 199.135 8.71899C199.286 8.7001 199.433 8.69254 199.584 8.69254H200.116C200.769 8.69254 201.403 8.72654 202.019 8.79076C202.634 8.85498 203.072 8.93432 203.336 9.02876C203.804 9.17987 204.261 9.39142 204.71 9.67475C205.159 9.9543 205.484 10.1696 205.692 10.317C206.514 10.9516 206.922 11.7072 206.922 12.5874C206.922 13.0747 206.805 13.5696 206.571 14.072C206.337 14.5745 206.016 15.0693 205.605 15.5567V15.5302C205.084 16.1271 204.438 16.7618 203.672 17.4342C202.906 18.1066 202.113 18.7715 201.29 19.4251C202.336 19.2928 203.389 19.1984 204.453 19.1304C205.518 19.0662 206.526 19.0322 207.477 19.0322H208.542C208.878 19.0322 209.195 19.0511 209.493 19.0888C209.98 19.1266 210.338 19.2853 210.572 19.5648C210.806 19.8444 210.924 20.1542 210.924 20.4904V20.6037C210.886 20.8644 210.788 21.1024 210.629 21.3177M196.024 10.1734C195.82 10.4341 195.499 10.5663 195.073 10.5663H193.027C192.412 10.5663 191.766 10.5625 191.094 10.5512C190.422 10.5436 189.765 10.5285 189.12 10.5096C188.474 10.4907 187.859 10.4718 187.27 10.453C186.681 10.4341 186.164 10.4152 185.715 10.3963C185.285 10.3774 184.971 10.2339 184.775 9.96186C184.579 9.68986 184.481 9.41409 184.481 9.13454V9.07787C184.481 8.76054 184.579 8.47721 184.775 8.2241C184.971 7.971 185.255 7.84633 185.628 7.84633H185.768C186.402 7.86522 187.134 7.88411 187.965 7.903C188.795 7.92189 189.641 7.94077 190.498 7.95966C191.358 7.97855 192.189 7.99366 192.989 8.00122C193.793 8.00877 194.484 8.01633 195.062 8.01633C195.492 8.01633 195.809 8.14855 196.013 8.40921C196.217 8.66988 196.322 8.96076 196.322 9.27809C196.322 9.61431 196.22 9.91275 196.013 10.1734M194.763 16.5615C194.763 17.4569 194.484 18.4768 193.922 19.6177C193.548 20.3846 193.053 21.2421 192.438 22.1979C191.823 23.1499 191.121 24.1208 190.339 25.1143C189.554 26.1041 188.701 27.0787 187.776 28.042C186.851 29.0054 185.904 29.8856 184.934 30.6902H184.96C184.809 30.8224 184.666 30.9056 184.526 30.9433C184.386 30.9811 184.243 31 184.092 31C183.699 31 183.371 30.8489 183.11 30.5505H183.141C183.027 30.4182 182.941 30.2898 182.876 30.1576C182.812 30.0253 182.778 29.8667 182.778 29.6816C182.778 29.3265 182.937 29.0091 183.254 28.7296C184.148 27.9438 185.017 27.1089 185.859 26.2212C186.7 25.3334 187.482 24.4343 188.21 23.5314C188.939 22.6248 189.588 21.7332 190.158 20.8568C190.728 19.9804 191.189 19.1757 191.543 18.4466C191.804 17.8875 191.936 17.4191 191.936 17.0451C191.936 16.8411 191.906 16.6635 191.853 16.5124C191.649 16.1007 191.117 15.8022 190.256 15.6171C189.977 15.5604 189.698 15.534 189.414 15.534C189.041 15.534 188.667 15.5604 188.293 15.6171C187.92 15.6738 187.58 15.7493 187.27 15.84C186.961 15.9344 186.7 16.0364 186.485 16.1498C186.27 16.2631 186.153 16.3727 186.134 16.486C186.04 16.7844 185.881 17.0035 185.658 17.1433C185.436 17.2831 185.19 17.3549 184.93 17.3549H184.847C184.511 17.336 184.216 17.2189 183.964 17.0035C183.711 16.7882 183.586 16.4671 183.586 16.0364V15.7267C183.586 15.3904 183.601 15.0278 183.628 14.6349C183.654 14.242 183.688 13.8491 183.726 13.4563C183.745 13.2145 183.763 12.9765 183.782 12.7423C183.801 12.508 183.813 12.27 183.813 12.0283C183.813 11.5976 183.952 11.2803 184.232 11.0763C184.511 10.8723 184.82 10.7665 185.156 10.7665C185.473 10.7665 185.76 10.8798 186.009 11.1027C186.262 11.3256 186.387 11.6429 186.387 12.0547C186.387 12.2965 186.383 12.5118 186.372 12.7007C186.364 12.8858 186.349 13.0634 186.33 13.2334C186.311 13.3089 186.304 13.4034 186.304 13.5129C186.734 13.3278 187.229 13.1805 187.787 13.0785C188.346 12.9765 188.897 12.9236 189.441 12.9236C189.664 12.9236 189.882 12.9349 190.098 12.95C190.313 12.9689 190.52 12.9954 190.728 13.0331C191.755 13.2183 192.563 13.4751 193.152 13.8038C193.74 14.1325 194.163 14.5556 194.427 15.0807C194.65 15.5302 194.763 16.0251 194.763 16.5653M176.716 14.8691C177.678 14.6727 178.558 14.3969 179.362 14.0418C179.381 13.8907 179.396 13.7509 179.404 13.6225C179.411 13.4903 179.419 13.3618 179.419 13.2296C179.419 12.3872 179.279 11.7525 179 11.3256V11.3521C178.683 10.9214 178.328 10.5814 177.935 10.3283C177.543 10.0752 177.029 9.95052 176.395 9.95052C175.648 9.95052 174.81 10.1092 173.873 10.4265C172.941 10.7438 172.043 11.2312 171.186 11.8847C170.85 12.1454 170.563 12.4703 170.333 12.8518C170.098 13.2334 169.981 13.528 169.981 13.7358C169.981 13.9436 170.046 14.1325 170.178 14.31C170.31 14.4876 170.57 14.6425 170.963 14.7709V14.7445C171.801 15.024 172.764 15.1638 173.847 15.1638C174.798 15.1638 175.757 15.0656 176.716 14.8691ZM181.967 15.2582C181.891 15.4358 181.744 15.5907 181.517 15.7191C181.276 16.7278 180.925 17.7666 180.468 18.8282C180.011 19.8935 179.494 20.9437 178.913 21.9826C178.335 23.0177 177.712 24.0225 177.052 24.9972C176.387 25.9681 175.731 26.8747 175.078 27.7172C174.76 28.0345 174.432 28.1931 174.096 28.1931C173.836 28.1931 173.537 28.0723 173.201 27.8305C173.088 27.736 173.001 27.6 172.933 27.4225C172.869 27.2449 172.835 27.0712 172.835 26.9049C172.835 26.7538 172.854 26.6103 172.892 26.4705C172.93 26.3307 172.994 26.2136 173.088 26.1192C173.59 25.4845 174.096 24.7894 174.602 24.0301C175.108 23.2746 175.595 22.4963 176.074 21.703C176.55 20.9097 176.991 20.1164 177.403 19.3231C177.814 18.5297 178.158 17.778 178.441 17.0678C177.675 17.3095 176.916 17.4871 176.157 17.6004C175.402 17.7137 174.651 17.7666 173.904 17.7666C172.484 17.7666 171.216 17.5891 170.095 17.234C168.173 16.6749 167.211 15.5718 167.211 13.9285V13.8718C167.23 13.1427 167.467 12.4325 167.924 11.7412C168.381 11.0498 168.936 10.4341 169.589 9.89008C170.616 9.06654 171.744 8.44699 172.979 8.02766C174.209 7.60834 175.387 7.39678 176.508 7.39678C177.629 7.39678 178.498 7.63856 179.279 8.12588C180.064 8.61321 180.687 9.21009 181.155 9.9203C181.415 10.351 181.616 10.8421 181.755 11.3898C181.895 11.9414 181.967 12.508 181.967 13.086C181.967 13.2371 181.963 13.3694 181.952 13.494C181.944 13.6149 181.929 13.7434 181.91 13.8718C182.004 13.9662 182.065 14.072 182.091 14.1929C182.118 14.3138 182.133 14.4309 182.133 14.5442V14.7142C182.095 14.8993 182.038 15.0845 181.963 15.262M164.829 21.0457C164.644 21.2875 164.353 21.4386 163.961 21.4952C163.866 21.5141 163.776 21.5217 163.681 21.5217H162.983C162.813 21.7635 162.571 21.8844 162.254 21.8844C161.994 21.8844 161.779 21.8012 161.609 21.6312C161.59 21.6501 161.545 21.6577 161.469 21.6577C161.375 21.6577 161.292 21.6652 161.216 21.6841C160.994 21.8504 160.748 21.9372 160.488 21.9372H160.348C159.714 21.8617 159.302 21.5255 159.117 20.9286L159.144 20.955C159.068 20.8039 159.031 20.6264 159.031 20.4224C159.031 20.1806 159.095 19.9615 159.227 19.765C159.359 19.5686 159.57 19.4251 159.872 19.3306C160.039 19.2551 160.227 19.1984 160.431 19.1606C160.635 19.1228 160.843 19.0964 161.046 19.0775C161.046 18.4995 161.069 17.8346 161.118 17.0866C161.163 16.3387 161.216 15.5907 161.273 14.8465C161.33 14.0985 161.394 13.3883 161.469 12.7158C161.545 12.0434 161.609 11.4843 161.665 11.0347C161.533 11.1103 161.394 11.1858 161.246 11.2576C161.095 11.3332 160.948 11.3974 160.797 11.4541C160.76 11.4541 160.737 11.4578 160.726 11.4692C160.714 11.4767 160.692 11.4843 160.654 11.4843C160.45 11.4843 160.261 11.4238 160.095 11.3029C159.925 11.1821 159.797 11.0385 159.703 10.8685C159.589 10.6834 159.533 10.4567 159.533 10.1961C159.533 9.76542 159.755 9.4292 160.205 9.18742H160.178C160.291 9.11187 160.45 9.01743 160.654 8.90787C160.861 8.79454 161.073 8.6661 161.299 8.51499C161.469 8.40166 161.632 8.29966 161.79 8.20522C161.949 8.11077 162.077 8.02766 162.168 7.95211C162.39 7.78211 162.643 7.699 162.923 7.699C163.296 7.699 163.621 7.83878 163.904 8.11833C164.183 8.39788 164.323 8.72654 164.323 9.10054V9.24031C164.247 9.87497 164.168 10.623 164.085 11.4805C164.002 12.3418 163.915 13.2183 163.832 14.1136C163.749 15.0089 163.67 15.8853 163.594 16.7353C163.519 17.5853 163.462 18.3182 163.425 18.934C163.685 18.934 163.912 18.9566 164.096 19.0057C164.281 19.0511 164.451 19.1228 164.599 19.2173H164.572C164.927 19.4024 165.104 19.7311 165.104 20.1995C165.104 20.5168 165.01 20.7964 164.825 21.0419M145.924 18.4542C145.645 18.7262 145.317 18.8622 144.943 18.8622C144.682 18.8622 144.426 18.798 144.173 18.6657C143.92 18.5335 143.72 18.3106 143.573 17.9933L143.599 18.0197C143.395 17.7213 143.169 17.4115 142.927 17.0942C142.686 16.7769 142.418 16.4898 142.131 16.2404C141.84 15.9873 141.534 15.7833 141.206 15.6247C140.877 15.466 140.538 15.3867 140.183 15.3867C139.866 15.3867 139.526 15.4509 139.16 15.5831C138.797 15.7153 138.424 15.8853 138.039 16.1007C137.657 16.316 137.284 16.5615 136.918 16.8449C136.555 17.1244 136.231 17.404 135.951 17.6835C135.785 17.8535 135.661 18.0235 135.589 18.2011C135.513 18.3786 135.476 18.5411 135.476 18.6922C135.494 18.9 135.615 19.0926 135.838 19.2815C136.061 19.4666 136.416 19.6366 136.902 19.7877C137.182 19.8633 137.54 19.9313 137.982 19.9993C138.42 20.0635 138.903 20.0975 139.424 20.0975C140.002 20.0975 140.628 20.0446 141.3 19.9426C141.972 19.8406 142.652 19.6744 143.346 19.4515H143.516C143.795 19.4515 144.037 19.5271 144.245 19.6744C144.448 19.8255 144.611 20.0219 144.72 20.2637C144.777 20.4337 144.803 20.6113 144.803 20.7964C144.803 21.0381 144.728 21.2648 144.581 21.4688C144.43 21.6728 144.169 21.8428 143.795 21.9712C143.01 22.2508 142.255 22.4397 141.527 22.5303C140.798 22.6248 140.107 22.6701 139.454 22.6701C138.801 22.6701 138.197 22.6361 137.646 22.5719C137.095 22.5077 136.634 22.4283 136.261 22.3339C135.083 22.0543 134.196 21.601 133.599 20.9739C133.003 20.3468 132.694 19.6253 132.675 18.8017V18.7186C132.675 17.8762 133.067 17.0186 133.852 16.1384C134.188 15.7644 134.607 15.3753 135.113 14.9749C135.615 14.5745 136.163 14.208 136.751 13.8831C137.34 13.5545 137.933 13.2863 138.529 13.0709C139.126 12.8556 139.696 12.7498 140.236 12.7498C140.983 12.7498 141.613 12.8934 142.127 13.1843C142.64 13.4751 143.101 13.7774 143.512 14.0947C143.437 13.1994 143.357 12.2738 143.274 11.3218C143.191 10.3699 143.101 9.43675 143.01 8.51877C142.916 7.60456 142.818 6.72435 142.716 5.88569C142.614 5.04326 142.516 4.28772 142.421 3.61528L142.448 3.64173C142.41 3.54728 142.391 3.48306 142.391 3.44528V3.33195C142.391 2.93907 142.497 2.63685 142.712 2.42152C142.927 2.20619 143.173 2.07019 143.456 2.01353L143.429 2.03997C143.524 2.00219 143.588 1.9833 143.625 1.9833H143.739C144.018 1.9833 144.279 2.0853 144.524 2.29308C144.765 2.49708 144.916 2.81818 144.973 3.24506C145.086 4.04972 145.211 5.03571 145.351 6.20302C145.49 7.37034 145.626 8.59054 145.758 9.85986C145.89 11.1292 146.004 12.3947 146.109 13.6565C146.211 14.9182 146.291 16.044 146.347 17.0338V17.2302C146.347 17.7704 146.207 18.1784 145.928 18.4504M128.926 17.7969C128.926 17.3284 128.711 16.9393 128.281 16.6182H126.348C125.861 16.6182 125.45 16.5389 125.114 16.3802C124.778 16.2215 124.589 16.0024 124.555 15.7229C124.536 15.7418 124.51 15.7493 124.472 15.7493C124.434 15.7682 124.408 15.7758 124.389 15.7758L124.332 15.8022C123.996 16.044 123.638 16.4218 123.253 16.9393C122.871 17.4531 122.622 18.0273 122.509 18.662C122.452 18.9982 122.426 19.2702 122.426 19.4742C122.426 19.8482 122.49 20.1277 122.622 20.3166C122.883 20.6717 123.287 20.8493 123.826 20.8493H124.049C124.517 20.8493 124.925 20.8115 125.28 20.7359C125.635 20.6604 125.959 20.5697 126.261 20.4564C126.71 20.2713 127.137 20.0068 127.548 19.6706C127.96 19.3344 128.322 18.9604 128.639 18.5486C128.824 18.3446 128.919 18.0915 128.919 17.7931M132.539 16.0742C132.426 16.2707 132.248 16.4142 132.006 16.5087C131.912 16.5464 131.803 16.5691 131.671 16.5804C131.538 16.5918 131.399 16.6031 131.252 16.622C131.436 16.996 131.531 17.4266 131.531 17.9102C131.531 18.2275 131.47 18.5826 131.35 18.9755C131.229 19.3684 130.999 19.7499 130.663 20.1239C130.161 20.7019 129.632 21.2119 129.081 21.6501C128.53 22.0884 127.945 22.4397 127.329 22.7003C126.79 22.9232 126.239 23.0819 125.676 23.1763C125.117 23.2708 124.51 23.3274 123.857 23.3463H123.717C122.037 23.3463 120.89 22.8061 120.274 21.7219C119.957 21.2195 119.799 20.5546 119.799 19.7311C119.799 19.2286 119.855 18.7035 119.965 18.1633C120.206 17.0413 120.671 16.0515 121.35 15.194C122.03 14.3365 122.83 13.6791 123.743 13.2334H123.717C124.11 13.0105 124.529 12.8971 124.978 12.8971C125.427 12.8971 125.872 13.0634 126.322 13.3996C126.491 13.3429 126.684 13.3165 126.91 13.3165C127.08 13.3165 127.239 13.3354 127.386 13.3731C127.703 13.4109 128.024 13.5091 128.352 13.6678C128.681 13.8265 128.964 14.0002 129.206 14.1854H131.361C131.735 14.1854 132.052 14.31 132.312 14.5631C132.573 14.8162 132.705 15.0996 132.705 15.4169V15.4736C132.705 15.6813 132.648 15.8816 132.535 16.078M106.806 8.51877C106.806 8.79832 106.745 9.07787 106.624 9.35742C106.504 9.63697 106.311 9.87119 106.051 10.0601C105.677 10.3019 105.315 10.4227 104.96 10.4227C104.737 10.4227 104.503 10.3812 104.258 10.2981C104.016 10.215 103.789 10.0676 103.586 9.86364C103.231 9.47075 103.053 9.03254 103.053 8.54521C103.053 8.28455 103.118 8.01633 103.25 7.74811C103.382 7.47612 103.586 7.23812 103.865 7.03412C104.163 6.81124 104.529 6.6979 104.956 6.6979C105.348 6.6979 105.711 6.81124 106.047 7.03412H106.073C106.56 7.40812 106.802 7.903 106.802 8.51877M111.075 20.2335C110.898 20.4753 110.584 20.6264 110.139 20.683C109.859 20.7208 109.49 20.8077 109.033 20.9475C108.576 21.0873 108.093 21.261 107.591 21.465C107.123 21.635 106.662 21.7975 106.205 21.9561C105.749 22.1148 105.333 22.2395 104.96 22.3339C104.363 22.485 103.85 22.5568 103.42 22.5568C102.672 22.5568 102.083 22.3641 101.657 21.9826C101.226 21.601 100.89 20.989 100.649 20.1466C100.592 19.9426 100.551 19.7046 100.524 19.4326C100.498 19.1606 100.483 18.8848 100.483 18.6053C100.483 18.4013 100.486 18.2162 100.498 18.0575C100.505 17.8989 100.52 17.7553 100.539 17.6231C100.577 17.1924 100.637 16.7731 100.721 16.3613C100.804 15.9495 100.902 15.5567 101.015 15.1827C100.939 15.1071 100.902 14.9862 100.902 14.82C100.902 14.7445 100.906 14.684 100.917 14.6387C100.928 14.5933 100.939 14.5405 100.958 14.4838C101.053 14.2798 101.177 14.0342 101.336 13.7547C101.494 13.4751 101.649 13.2598 101.796 13.1087C102.057 12.9047 102.355 12.7989 102.691 12.7989C102.876 12.7989 103.072 12.8367 103.28 12.9123C103.54 13.0067 103.748 13.1427 103.895 13.3203C104.046 13.4978 104.118 13.6905 104.118 13.8945C104.118 14.0645 104.091 14.2118 104.035 14.344C103.831 14.718 103.627 15.2167 103.431 15.8438C103.235 16.4709 103.118 17.0829 103.08 17.6797V18.1293C103.08 18.6317 103.118 19.0246 103.193 19.3079C103.306 19.7008 103.54 19.8973 103.895 19.8973H104.118C104.193 19.8973 104.288 19.8784 104.397 19.8406C104.658 19.8028 104.967 19.7197 105.322 19.5875C105.677 19.4553 106.039 19.3155 106.413 19.1682C107.047 18.9075 107.689 18.6657 108.331 18.4391C108.976 18.2162 109.52 18.1028 109.969 18.1028H110.026C110.456 18.1028 110.777 18.2351 110.992 18.4957C111.207 18.7564 111.324 19.0548 111.343 19.3911V19.4477C111.343 19.7273 111.252 19.9879 111.075 20.2335ZM102.94 18.9188C102.94 19.3873 102.706 19.7613 102.242 20.0408C101.906 20.2108 101.434 20.4224 100.826 20.6868C100.218 20.9475 99.5126 21.2006 98.7123 21.4424C97.9083 21.6841 97.0212 21.8995 96.0511 22.0884C95.0809 22.2735 94.0617 22.3792 92.9972 22.3981H92.7745C91.3174 22.3981 90.1849 22.1223 89.3733 21.5708C88.5618 21.0193 88.1541 20.2788 88.1541 19.3419C88.1541 19.0246 88.2069 18.6733 88.3088 18.2917C88.4108 17.9102 88.5844 17.5211 88.826 17.1282C89.3658 16.1762 90.1623 15.2922 91.2079 14.48C92.2536 13.6678 93.4389 13.018 94.7638 12.5307C94.9148 12.4929 95.2017 12.474 95.632 12.474H95.9416C96.036 12.474 96.1115 12.4816 96.1643 12.5005C96.6513 12.576 97.0099 12.7347 97.2439 12.9765C97.4779 13.2183 97.6025 13.5016 97.6214 13.8189C97.6214 14.1362 97.5157 14.4309 97.3005 14.7029C97.0854 14.9749 96.7909 15.1487 96.4172 15.2204C96.3417 15.2204 96.2662 15.2242 96.1945 15.2356C96.119 15.2431 96.0246 15.2507 95.9152 15.2507C95.7453 15.2507 95.5792 15.2431 95.4131 15.2242C95.2432 15.2053 95.0771 15.1676 94.911 15.1109C94.594 15.2053 94.258 15.3527 93.9032 15.5604C93.5483 15.7644 93.1973 16.01 92.8538 16.2895C92.5102 16.5691 92.1894 16.8789 91.9025 17.2151C91.6118 17.5513 91.3853 17.8875 91.2155 18.2237C91.0834 18.4655 91.0192 18.6922 91.0192 18.8962C91.0192 19.1946 91.174 19.4439 91.4797 19.6404C91.7893 19.8368 92.2687 19.935 92.9217 19.935C93.8163 19.935 94.6921 19.8519 95.5415 19.6819C96.3908 19.5157 97.1797 19.3193 97.9083 19.0926C98.6368 18.8697 99.271 18.6393 99.8108 18.4051C100.351 18.1709 100.755 17.982 101.015 17.8309C101.238 17.7175 101.464 17.6609 101.687 17.6609C102.136 17.6609 102.48 17.8384 102.721 18.1935H102.748C102.88 18.4542 102.944 18.6997 102.944 18.9226M86.5309 8.51877C86.5309 8.79832 86.4705 9.07787 86.3497 9.35742C86.2289 9.63697 86.0364 9.87119 85.7759 10.0601C85.4022 10.3019 85.0398 10.4227 84.685 10.4227C84.4623 10.4227 84.2282 10.3812 83.9829 10.2981C83.7413 10.215 83.5148 10.0676 83.3109 9.86364C82.9561 9.47075 82.7787 9.03254 82.7787 8.54521C82.7787 8.28455 82.8429 8.01633 82.975 7.74811C83.1071 7.47612 83.3109 7.23812 83.5903 7.03412C83.8885 6.81124 84.2546 6.6979 84.6812 6.6979C85.0738 6.6979 85.4362 6.81124 85.7721 7.03412H85.7986C86.2855 7.40812 86.5271 7.903 86.5271 8.51877M90.8002 20.2335C90.6228 20.4753 90.3095 20.6264 89.8641 20.683C89.5847 20.7208 89.2148 20.8077 88.758 20.9475C88.3013 21.0873 87.8181 21.261 87.3161 21.465C86.848 21.635 86.3874 21.7975 85.9307 21.9561C85.4739 22.1148 85.0587 22.2395 84.685 22.3339C84.0886 22.485 83.5752 22.5568 83.1448 22.5568C82.3974 22.5568 81.8085 22.3641 81.382 21.9826C80.9517 21.601 80.6157 20.989 80.3741 20.1466C80.3175 19.9426 80.276 19.7046 80.2495 19.4326C80.2231 19.1606 80.208 18.8848 80.208 18.6053C80.208 18.4013 80.2118 18.2162 80.2231 18.0575C80.2307 17.8989 80.2458 17.7553 80.2646 17.6231C80.3024 17.1924 80.3628 16.7731 80.4458 16.3613C80.5289 15.9495 80.627 15.5567 80.7403 15.1827C80.6648 15.1071 80.627 14.9862 80.627 14.82C80.627 14.7445 80.6308 14.684 80.6421 14.6387C80.6534 14.5933 80.6648 14.5405 80.6836 14.4838C80.778 14.2798 80.9026 14.0342 81.0611 13.7547C81.2197 13.4751 81.3744 13.2598 81.5217 13.1087C81.7821 12.9047 82.0803 12.7989 82.4163 12.7989C82.6013 12.7989 82.7976 12.8367 83.0052 12.9123C83.2656 13.0067 83.4733 13.1427 83.6205 13.3203C83.7715 13.4978 83.8432 13.6905 83.8432 13.8945C83.8432 14.0645 83.8168 14.2118 83.7601 14.344C83.5563 14.718 83.3525 15.2167 83.1562 15.8438C82.9599 16.4709 82.8428 17.0829 82.8051 17.6797V18.1293C82.8051 18.6317 82.8429 19.0246 82.9184 19.3079C83.0316 19.7008 83.2656 19.8973 83.6205 19.8973H83.8432C83.9187 19.8973 84.0131 19.8784 84.1225 19.8406C84.383 19.8028 84.6925 19.7197 85.0474 19.5875C85.4022 19.4553 85.7646 19.3155 86.1383 19.1682C86.7725 18.9075 87.4142 18.6657 88.0559 18.4391C88.7014 18.2162 89.245 18.1028 89.6942 18.1028H89.7508C90.1812 18.1028 90.502 18.2351 90.7172 18.4957C90.9324 18.7564 91.0494 19.0548 91.0683 19.3911V19.4477C91.0683 19.7273 90.9814 19.9879 90.804 20.2335M82.6088 19.8557C82.4956 20.071 82.3106 20.2335 82.0501 20.3468C81.918 20.3846 81.801 20.4186 81.6991 20.445C81.5972 20.4715 81.4877 20.4866 81.3782 20.4866H81.1555C80.9328 20.581 80.6799 20.6641 80.4005 20.7397H80.427C80.1099 20.853 79.7739 20.9739 79.4191 21.1024C79.0642 21.2346 78.7018 21.3932 78.3281 21.5784C77.5807 21.8768 76.9012 22.0279 76.2822 22.0279C75.6102 22.0279 75.0025 21.8655 74.4627 21.5368C73.9229 21.2081 73.4926 20.7095 73.1755 20.037C72.915 19.4968 72.73 18.9528 72.6281 18.4126C72.5262 17.8724 72.4469 17.4153 72.3903 17.0375V17.0678C72.3714 16.9922 72.3639 16.928 72.3639 16.8713C72.3639 16.8146 72.3563 16.7693 72.3374 16.7315C72.3186 16.6182 72.2355 16.5464 72.0845 16.5087C72.0468 16.4898 72.0015 16.4822 71.9449 16.4822C71.7976 16.4822 71.6504 16.5162 71.5108 16.5804C71.3711 16.6446 71.2163 16.724 71.0502 16.8184H71.0767C71.1144 16.8184 71.0012 16.9242 70.7407 17.1395C70.4802 17.3549 70.216 17.5626 69.9555 17.7704V17.744C69.6951 17.9669 69.4308 18.1973 69.1703 18.4315C68.9099 18.6657 68.6456 18.866 68.3852 19.0359C68.1625 19.2059 67.9247 19.4062 67.6717 19.6404C67.4188 19.8746 67.1772 20.1164 66.9432 20.3695C66.7092 20.6226 66.5015 20.8757 66.3128 21.125C66.1278 21.3781 65.9844 21.5859 65.8938 21.7559C65.7428 22.0543 65.5578 22.2583 65.3351 22.3717C65.1124 22.485 64.8859 22.5417 64.6632 22.5417C64.5688 22.5417 64.4631 22.5341 64.3423 22.5152C64.2215 22.4963 64.1121 22.4586 64.0215 22.4019C63.7044 22.2508 63.493 22.0732 63.3911 21.8692C63.2891 21.6615 63.2363 21.431 63.2363 21.1666V18.2502C63.2363 17.9895 63.2325 17.7364 63.2212 17.4946C63.2136 17.2529 63.2061 17.0262 63.2061 16.8222V16.1195C62.9267 15.9873 62.7871 15.7569 62.7871 15.4207C62.8248 15.2356 62.8965 15.0127 63.0098 14.7633C63.123 14.5102 63.2514 14.31 63.4024 14.1589C63.6062 13.8794 63.9422 13.7396 64.4103 13.7396H64.5499C64.8104 13.7585 65.0633 13.8416 65.3049 13.9927C65.5465 14.1438 65.6862 14.3667 65.7239 14.6651C65.7239 14.7218 65.7277 14.7822 65.739 14.8465C65.7503 14.9107 65.7541 14.9711 65.7541 15.0278C65.773 15.2507 65.7881 15.5151 65.7956 15.8136C65.8032 16.112 65.8107 16.4218 65.8107 16.7391V18.0575C65.9957 17.8724 66.1882 17.6949 66.3845 17.5249C66.5808 17.3549 66.7733 17.1886 66.9583 17.0186C67.0149 16.9809 67.0715 16.9393 67.1282 16.894C67.1848 16.8486 67.2414 16.8033 67.298 16.7693C67.6717 16.4142 68.0643 16.0629 68.472 15.7191C68.8835 15.3716 69.276 15.0693 69.6498 14.8087C70.0423 14.4913 70.4991 14.2458 71.02 14.0682C71.5447 13.8907 72.0279 13.8038 72.4771 13.8038H72.647C73.2245 13.8038 73.7153 13.9738 74.1154 14.3062C74.5155 14.6425 74.7722 15.1562 74.8855 15.8476C74.9798 16.52 75.0818 17.1131 75.195 17.6269C75.3083 18.1406 75.4366 18.5675 75.5876 18.9C75.7386 19.2739 76.0443 19.4591 76.5124 19.4591C76.7918 19.4591 77.0636 19.4024 77.324 19.2928C77.475 19.2362 77.6185 19.1757 77.7581 19.1115C77.8978 19.0473 78.0412 18.9944 78.1922 18.9566H78.162C78.6679 18.7526 79.185 18.5486 79.7173 18.3522C80.2495 18.1557 80.7289 18.0122 81.1593 17.9177C81.2348 17.8989 81.3631 17.8913 81.5519 17.8913C81.9633 17.8913 82.2653 18.0122 82.4616 18.254C82.6579 18.4957 82.7636 18.7942 82.7825 19.1493V19.2059C82.7825 19.4288 82.7258 19.6479 82.6126 19.8633M62.5719 14.8125C62.3756 15.0656 62.0623 15.2016 61.6357 15.2204C61.4659 15.2204 61.262 15.2167 61.0205 15.2053C60.7789 15.194 60.5146 15.1827 60.2353 15.1638C59.8993 15.1449 59.5407 15.1298 59.1557 15.1222C58.7706 15.1147 58.3932 15.1071 58.0194 15.1071C58.0194 15.5944 58.0383 16.0969 58.0761 16.622C58.1138 17.1471 58.1591 17.6533 58.2157 18.1482C58.2724 18.6431 58.3365 19.1115 58.412 19.5497C58.4875 19.9879 58.5706 20.377 58.6649 20.7133L58.6347 20.6868C58.6725 20.7813 58.6914 20.8455 58.6914 20.8833V20.9966C58.6914 21.3139 58.6045 21.5784 58.4271 21.7937C58.2497 22.009 58.0308 22.145 57.7703 22.2017L57.7967 22.1752C57.7024 22.213 57.6269 22.2319 57.574 22.2319H57.4608C57.1814 22.2319 56.9134 22.1488 56.6643 21.9788C56.4114 21.8088 56.2415 21.5292 56.1471 21.1364C55.9433 20.3695 55.7847 19.4628 55.6715 18.4164C55.5582 17.37 55.5016 16.2669 55.5016 15.1109H53.7954C53.3839 15.1109 53.0819 14.9862 52.8856 14.7331C52.6894 14.48 52.5912 14.1967 52.5912 13.8794C52.5912 13.562 52.6894 13.2711 52.8856 13.0105C53.0819 12.7498 53.3953 12.5912 53.8256 12.5345H55.0033C55.1732 12.5345 55.3393 12.5269 55.5054 12.508C55.5054 11.9489 55.5318 11.3181 55.5884 10.6154C55.6451 9.91652 55.7206 9.1912 55.8112 8.44321C55.9055 7.69522 56.0074 6.94346 56.1207 6.18791C56.2339 5.43237 56.3623 4.71838 56.5133 4.04216C56.4189 3.94772 56.3736 3.80795 56.3736 3.62284C56.3736 3.49062 56.3925 3.38862 56.4302 3.31306L56.4038 3.33951C56.4416 3.1544 56.5737 2.88996 56.7964 2.55374C56.8341 2.51596 56.8719 2.45552 56.9096 2.37241C56.9474 2.2893 56.9663 2.26663 56.9663 2.30063L57.0229 2.04753C57.0606 1.99086 57.1022 1.92286 57.1474 1.83597C57.1927 1.75286 57.2003 1.72642 57.1626 1.7642L57.1361 1.82086C57.3588 1.31843 57.7137 1.06532 58.2006 1.06532C58.4045 1.06532 58.631 1.14087 58.8726 1.2882L58.8424 1.26176C59.0651 1.41287 59.25 1.5942 59.3897 1.80953C59.5294 2.02486 59.6011 2.2893 59.6011 2.60663V2.68974C59.6011 2.91262 59.5709 3.09773 59.5181 3.23751C59.4614 3.37728 59.3859 3.52084 59.2953 3.67195L59.2689 3.70217C59.1179 4.28016 58.9745 4.94504 58.8348 5.69303C58.6951 6.44102 58.5668 7.21167 58.4573 8.005C58.3441 8.79832 58.2497 9.58786 58.178 10.3736C58.1025 11.1594 58.0647 11.8696 58.0647 12.5043C58.4007 12.5043 58.831 12.5194 59.352 12.5458C59.8767 12.5723 60.3787 12.6063 60.8657 12.644C61.5187 12.6818 62.017 12.78 62.3643 12.9387C62.7116 13.0974 62.8814 13.4487 62.8814 13.9889C62.8814 14.2874 62.7833 14.5631 62.587 14.8162M48.9485 13.256C48.9485 13.1994 48.9409 13.1389 48.9221 13.0747C48.9032 13.0105 48.8843 12.9576 48.8654 12.9198C48.8277 12.882 48.7522 12.8631 48.6427 12.8631C48.5483 12.8631 48.4464 12.8858 48.3332 12.9311C48.2199 12.9765 48.118 13.018 48.0236 13.0558H48.0501C47.8462 13.1691 47.5933 13.3845 47.2951 13.7018C46.978 14.0191 46.6685 14.3931 46.3703 14.8238C46.072 15.2544 45.8304 15.7116 45.6417 16.1989C45.9965 16.0855 46.3476 15.9458 46.6911 15.7796C47.0384 15.6096 47.3593 15.4207 47.6575 15.2053C47.9557 14.99 48.2124 14.7558 48.4276 14.5027C48.6427 14.2496 48.7862 13.9927 48.8617 13.732V13.7622C48.9183 13.5394 48.9447 13.3694 48.9447 13.256M55.0524 19.5044C55.0524 19.7273 54.9882 19.9426 54.8561 20.1504C54.724 20.3544 54.5088 20.5055 54.2106 20.5999H54.237C54.0861 20.6566 53.9275 20.7133 53.7614 20.7661C53.5915 20.8228 53.4066 20.8984 53.2027 20.989C52.8102 21.1401 52.3685 21.3064 51.874 21.4915C51.3795 21.6766 50.8548 21.8504 50.3074 22.009C49.7563 22.1677 49.1825 22.2999 48.5861 22.4019C47.9897 22.5039 47.3932 22.5568 46.793 22.5568C46.2872 22.5568 45.8229 22.519 45.3926 22.4435C44.5508 22.3301 43.8789 22.0128 43.3768 21.4915C42.686 20.8379 42.3425 19.9955 42.3425 18.968C42.3425 18.7828 42.35 18.5977 42.3689 18.4202C42.3878 18.2426 42.4142 18.0689 42.452 17.9026C42.6369 16.8373 42.9502 15.8929 43.3919 15.0731C43.8298 14.2534 44.2639 13.5583 44.6942 12.9991C45.5926 11.8961 46.374 11.1783 47.046 10.8421H47.0195C47.28 10.6947 47.5895 10.5701 47.9444 10.4794C48.2992 10.385 48.6616 10.3396 49.0353 10.3396C49.5562 10.3396 50.0054 10.4605 50.3791 10.7023C50.7906 10.9441 51.0737 11.2727 51.2323 11.6845C51.3908 12.0963 51.4701 12.5345 51.4701 13.0029C51.4701 13.5091 51.4135 13.9549 51.3002 14.3478C51.1303 14.9258 50.8284 15.4773 50.3905 16.0024C49.9526 16.5275 49.4392 16.996 48.8503 17.4191C48.2615 17.8384 47.6273 18.186 46.9478 18.4542C46.2683 18.7224 45.6077 18.8962 44.9736 18.9717C44.9736 19.2513 45.0566 19.4817 45.2265 19.6593C45.3926 19.8368 45.6191 19.9464 45.8984 19.9804C46.1777 20.0559 46.4948 20.0937 46.8497 20.0937C47.7103 20.0937 48.6087 19.9426 49.5525 19.6442C50.4962 19.3457 51.3493 19.0548 52.1156 18.7753C52.376 18.6808 52.6252 18.5902 52.8592 18.4957C53.0933 18.4013 53.3009 18.3257 53.4896 18.2728C53.5462 18.254 53.6029 18.2388 53.6595 18.2313C53.7161 18.2237 53.7916 18.2162 53.8822 18.2162C54.1238 18.2162 54.3352 18.288 54.5126 18.4277C54.69 18.5675 54.8335 18.7413 54.9467 18.9453V18.9188C55.0222 19.07 55.06 19.2664 55.06 19.5082M40.7155 7.45345C40.7155 7.75189 40.6551 8.039 40.5343 8.30721C40.4135 8.57921 40.221 8.81721 39.9606 9.0212C39.6812 9.24409 39.3151 9.35742 38.8696 9.35742C38.4242 9.35742 37.9901 9.15342 37.639 8.74165C37.3219 8.36766 37.1634 7.92944 37.1634 7.42323C37.1634 6.78857 37.3974 6.29369 37.8655 5.93858C38.1449 5.67792 38.5072 5.5457 38.9564 5.5457C39.1414 5.5457 39.3339 5.57592 39.5302 5.62881C39.7265 5.68547 39.9002 5.78747 40.0474 5.93858C40.4966 6.33146 40.7193 6.8339 40.7193 7.45345M41.1194 21.3706C41.0175 22.3679 40.8665 23.3463 40.6702 24.2983C40.4739 25.2503 40.2323 26.157 39.9417 27.0183C39.651 27.8758 39.3302 28.654 38.9753 29.3454C38.7715 29.7571 38.4884 30.1236 38.1335 30.4522C37.7787 30.7771 37.3597 30.9433 36.8727 30.9433H36.8161C36.3292 30.9433 35.9705 30.7998 35.7365 30.5089C35.5025 30.218 35.3854 29.9045 35.3854 29.5682V29.5116C35.4043 29.0809 35.5062 28.7749 35.695 28.586C35.9177 28.416 36.08 28.3291 36.1857 28.3216C36.2876 28.3103 36.3858 28.2989 36.4801 28.28C36.499 28.28 36.5217 28.2763 36.5481 28.2649C36.5745 28.2574 36.6085 28.2498 36.6462 28.2498C36.7217 28.1365 36.8048 27.9892 36.8992 27.8003L36.8727 27.8834C36.8916 27.8645 36.8992 27.8456 36.8992 27.8267C37.4578 26.5574 37.907 25.0879 38.243 23.4257C38.579 21.7635 38.7488 20.0899 38.7488 18.4088C38.7488 17.3813 38.6658 16.3613 38.4959 15.3527C38.2921 15.2204 38.1524 14.9976 38.0769 14.6802C38.0769 14.6047 38.0731 14.5367 38.0618 14.4687C38.0505 14.4045 38.0467 14.2949 38.0467 14.1476C38.0467 14.0154 38.0505 13.9058 38.0618 13.8114C38.0694 13.7169 38.0769 13.6338 38.0769 13.5582C38.1524 13.2976 38.2808 13.0823 38.4695 12.9123C38.6545 12.746 38.8621 12.6214 39.0848 12.5496C39.1603 12.5307 39.2207 12.5156 39.266 12.508C39.3113 12.5005 39.4019 12.4929 39.534 12.4929C39.7378 12.4929 39.9341 12.5496 40.1229 12.6592C40.3078 12.7725 40.4513 12.9576 40.5419 13.2183C40.8024 13.9662 40.9911 14.7785 41.1006 15.6587C41.2138 16.5351 41.2667 17.4531 41.2667 18.4051C41.2667 19.3571 41.2138 20.3619 41.1119 21.363M35.9101 16.044C35.7139 16.3349 35.4005 16.5049 34.9702 16.5615C34.8758 16.5804 34.7664 16.588 34.6342 16.588H33.9887C33.8944 16.588 33.8 16.5804 33.7094 16.5615C33.4301 17.2718 33.0979 18.0651 32.7166 18.9453C32.3354 19.8217 31.9541 20.5886 31.5842 21.2421C30.8556 22.5303 30.0516 23.1763 29.1758 23.1763C28.3 23.1763 27.5224 22.587 26.7939 21.4121C26.6429 21.1326 26.4843 20.8039 26.3183 20.4299C26.1484 20.0559 26.0012 19.6819 25.869 19.3079C25.6463 18.6355 25.4727 17.9215 25.3519 17.1622C25.2311 16.4067 25.1216 15.6549 25.031 14.9069C24.9367 14.8125 24.8763 14.6916 24.8498 14.5442C24.8234 14.3969 24.8083 14.2458 24.8083 14.0947V13.7585C24.8083 13.7018 24.8121 13.6716 24.8234 13.6602C24.831 13.6527 24.8423 13.6527 24.8498 13.6602C24.8574 13.6716 24.8649 13.6565 24.8649 13.6187C24.9027 13.5243 24.9216 13.4714 24.9216 13.4525V13.3391C24.9971 12.9085 25.1594 12.5912 25.4123 12.3872C25.6652 12.1832 25.9483 12.0774 26.2654 12.0774H26.322C26.6014 12.0963 26.8543 12.1983 27.077 12.3872C27.2997 12.576 27.4394 12.9009 27.496 13.3694C27.5149 13.6489 27.5413 13.9889 27.5791 14.3931C27.6168 14.7936 27.6734 15.2242 27.7489 15.6813C27.8244 16.1384 27.9075 16.6107 28.0018 17.098C28.0962 17.5853 28.217 18.05 28.368 18.4995H28.3416C28.3982 18.7035 28.4661 18.9151 28.553 19.1304C28.636 19.3457 28.7266 19.5195 28.821 19.6479V19.6177C29.0059 19.9162 29.1192 20.0673 29.1569 20.0673C29.2136 20.0484 29.274 20.0144 29.3381 19.969C29.4023 19.9237 29.4816 19.8142 29.5759 19.6479C29.9308 19.0511 30.2667 18.3975 30.5838 17.6873C30.9009 16.9771 31.1916 16.2669 31.452 15.5567C31.286 15.3338 31.1991 15.0505 31.1991 14.7142C31.1991 14.0796 31.5351 13.63 32.207 13.3694C32.3769 13.2749 32.5694 13.2296 32.7959 13.2296C33.0752 13.2296 33.3168 13.3051 33.5244 13.4525C33.7283 13.6036 33.8868 13.7811 34.0001 13.9851C34.0756 14.004 34.1964 14.0116 34.3625 14.0116H34.9513C34.9891 14.0116 35.0193 14.0078 35.0495 13.9965C35.0759 13.9889 35.1099 13.9814 35.1476 13.9814C35.5213 13.9814 35.7931 14.0985 35.9592 14.3327C36.1291 14.5669 36.2121 14.8313 36.2121 15.1336C36.2121 15.4509 36.114 15.7531 35.9177 16.044M27.6093 19.5346C27.6093 19.7575 27.5526 19.9728 27.4394 20.1806C27.3261 20.3846 27.1676 20.5546 26.9638 20.683C26.3296 21.0193 25.6086 21.3328 24.8083 21.6199C24.0043 21.9108 23.2568 22.0921 22.5698 22.1677C22.4377 22.1866 22.3094 22.1941 22.1772 22.1941H21.8413C21.226 22.1941 20.7353 22.0959 20.3691 21.8995C20.0067 21.703 19.6745 21.3895 19.3763 20.9626V20.989C19.2442 20.8001 19.1234 20.5357 19.0139 20.1919C18.9007 19.8444 18.8441 19.5346 18.8441 19.2513C18.7874 19.2513 18.7308 19.2777 18.678 19.3344C18.4364 19.4855 18.1306 19.7122 17.7682 20.0219C17.4058 20.3317 17.017 20.6604 16.6056 21.0155C16.3451 21.2195 16.096 21.4235 15.8619 21.6199C15.6279 21.8164 15.4014 22.0052 15.1749 22.1941C14.3709 22.7721 13.6234 23.063 12.9326 23.063C12.3551 23.063 11.8606 22.8854 11.4491 22.5303C10.9244 22.0808 10.664 21.4008 10.664 20.4828C10.7017 19.6404 10.9169 18.8471 11.3094 18.0991C11.5888 17.54 11.9285 16.996 12.3324 16.4747C12.7326 15.9495 13.1591 15.4622 13.6083 15.0013C14.0575 14.5405 14.5105 14.1287 14.9673 13.7547C15.424 13.3807 15.8506 13.0634 16.2432 12.8027C16.6924 12.5232 17.2246 12.2209 17.8399 11.8923C18.4552 11.5636 19.1083 11.4012 19.7991 11.4012C20.1728 11.4012 20.5503 11.4692 20.9315 11.6127C21.3128 11.7525 21.7016 11.9829 22.0942 12.3003C22.2792 12.4476 22.4113 12.61 22.4868 12.7763C22.5623 12.9463 22.6 13.1049 22.6 13.2523C22.6 13.494 22.5434 13.7094 22.4302 13.8982C22.298 14.106 22.1282 14.2685 21.913 14.3893C21.6978 14.5102 21.46 14.5707 21.1996 14.5707C20.9202 14.5707 20.656 14.4876 20.4144 14.3176C20.2823 14.2042 20.1388 14.1249 19.9803 14.0796C19.8217 14.0342 19.6594 14.0078 19.4895 14.0078C18.9648 14.0078 18.3495 14.2496 17.6399 14.7369C17.3039 14.9598 16.9415 15.2431 16.5489 15.5793C16.1564 15.9156 15.7713 16.2858 15.3863 16.6862C15.005 17.0866 14.6502 17.5097 14.3218 17.948C13.9934 18.3862 13.7367 18.8017 13.5517 19.1946C13.4951 19.2891 13.4536 19.4099 13.4234 19.5573C13.3969 19.7084 13.3818 19.8482 13.3818 19.9766C13.3818 20.105 13.3894 20.1806 13.4083 20.1995C13.4083 20.2373 13.4271 20.2562 13.4649 20.2562C13.5781 20.2562 13.7367 20.173 13.9405 20.003L14.2765 19.7499C14.5747 19.5082 14.9144 19.2211 15.2995 18.8962C15.6807 18.5675 16.0733 18.2464 16.4772 17.9291C16.8774 17.6117 17.2699 17.3095 17.655 17.0186C18.0362 16.7278 18.3797 16.4898 18.678 16.3047V16.3349C19.1649 16.0364 19.6292 15.8853 20.0784 15.8853C20.4521 15.8853 20.7617 15.9987 21.0033 16.2215C21.2449 16.4444 21.3657 16.792 21.3657 17.2604V17.6797C21.3657 17.9404 21.3732 18.1746 21.3921 18.3786C21.4109 18.5864 21.4487 18.7526 21.5053 18.8848C21.5997 19.1455 21.7092 19.3231 21.8413 19.4175C21.9734 19.5119 22.1395 19.5573 22.3433 19.5573H22.4566C22.6793 19.5195 22.9435 19.4628 23.2418 19.3911C23.54 19.3193 23.8457 19.2286 24.1515 19.1228C24.461 19.0208 24.7592 18.9113 25.0461 18.8017C25.3368 18.6884 25.5822 18.5788 25.7898 18.4655C26.0125 18.3522 26.2201 18.2955 26.4051 18.2955C26.7599 18.2955 27.0657 18.4466 27.3299 18.7451V18.7715C27.5149 19.0133 27.6093 19.2664 27.6093 19.5271M11.6756 1.26176C11.6756 1.43176 11.6492 1.5942 11.5926 1.75286C11.5359 1.91153 11.434 2.09286 11.283 2.30063C11.0226 2.63685 10.6187 3.04485 10.0788 3.52084C9.53905 3.99683 8.93129 4.52571 8.25937 5.1037C7.4742 5.77614 6.67771 6.4788 5.86612 7.20412C5.05452 7.93322 4.34863 8.6321 3.7522 9.30453C3.0614 10.0525 2.71412 10.7325 2.71412 11.3521C2.71412 11.8772 3.02365 12.4438 3.63895 13.0596C3.89942 13.3203 4.23538 13.6451 4.64684 14.0267C5.0583 14.4082 5.47731 14.7973 5.90764 15.1902C6.26248 15.4887 6.60221 15.7833 6.93062 16.0742C7.25526 16.3651 7.52328 16.6107 7.72712 16.8184C8.95772 18.1066 9.57679 19.3986 9.57679 20.6868V20.7699C9.57679 21.295 9.48242 21.7824 9.29745 22.2432C9.11249 22.7003 8.85957 23.1461 8.54248 23.573C7.87056 24.4154 7.14579 25.1105 6.37195 25.6621C5.5981 26.2136 4.9375 26.6367 4.3977 26.9389C4.26558 27.0145 4.14856 27.0598 4.04664 27.0787C3.94472 27.0976 3.8277 27.1052 3.69558 27.1052C3.47286 27.1052 3.2577 27.0447 3.05008 26.9238C2.84624 26.8029 2.68769 26.6216 2.57445 26.3761C2.44233 26.1532 2.37816 25.9379 2.37816 25.7301C2.37816 25.5223 2.431 25.3183 2.53292 25.1143C2.63485 24.9065 2.81604 24.7403 3.08028 24.6081C3.56346 24.3285 4.14101 23.9734 4.80161 23.5428C5.46598 23.1121 6.00956 22.6097 6.43989 22.0279C6.64374 21.7861 6.78341 21.5519 6.8589 21.329C6.9344 21.1061 6.97215 20.8795 6.97215 20.6566C6.95327 20.3582 6.8589 20.0408 6.69281 19.7046C6.52294 19.3684 6.25493 19.0133 5.88122 18.6393C5.583 18.3408 5.19419 17.9744 4.71856 17.5475C4.24293 17.1169 3.77108 16.6975 3.30299 16.2858C3.02365 16.0251 2.75564 15.7833 2.5065 15.5567C2.25359 15.3338 2.03464 15.1373 1.84968 14.9673C0.619075 13.8454 0 12.6705 0 11.4352V11.3521C0 10.2112 0.6153 8.96832 1.84968 7.62345C2.61597 6.78101 3.43889 5.9688 4.32598 5.18681C5.21307 4.40105 6.03976 3.68328 6.80605 3.02973C7.16089 2.71241 7.48553 2.42152 7.78751 2.16086C8.08573 1.90019 8.34619 1.67353 8.57268 1.48842C8.72368 0.7971 9.10494 0.339995 9.72024 0.113332C9.88633 0.0377772 10.0751 0 10.2789 0C10.6715 0 11.015 0.13222 11.317 0.392883C11.5586 0.577992 11.6794 0.868876 11.6794 1.26176" fill="#00539B"/>
</svg>
